<svg width="400" height="382" viewBox="0 0 400 382" fill="none" xmlns="http://www.w3.org/2000/svg">
<path d="M400 286.577C400 299.134 381.557 308 369 308V308C345.252 308 326 327.252 326 351V351C326 363.557 317.134 382 304.578 382H48C25.3726 382 14.0589 382 7.02944 374.971C0 367.941 0 356.627 0 334V48C0 25.3726 0 14.0589 7.02944 7.02944C14.0589 0 25.3726 0 48 0H352C374.627 0 385.941 0 392.971 7.02944C400 14.0589 400 25.3726 400 48V286.577ZM400 381.652C400 381.843 399.843 382 399.652 382V382C399.344 382 399.186 381.622 399.404 381.404V381.404C399.622 381.186 400 381.344 400 381.652V381.652Z" fill="#C8F249"/>
</svg>
