<svg width="28" height="28" viewBox="0 0 28 28" fill="none" xmlns="http://www.w3.org/2000/svg">
<path d="M22.5709 0.286133C23.9875 0.286133 25.1988 0.789109 26.2048 1.79506C27.2108 2.80101 27.7137 4.01232 27.7137 5.42899V22.5718C27.7137 23.9885 27.2108 25.1998 26.2048 26.2058C25.1988 27.2117 23.9875 27.7147 22.5709 27.7147H19.2137V17.0897H22.7673L23.303 12.9468H19.2137V10.304C19.2137 9.63732 19.3536 9.13732 19.6334 8.80399C19.9131 8.47066 20.4578 8.30399 21.2673 8.30399L23.4459 8.28613V4.5897C22.6959 4.48256 21.6363 4.42899 20.2673 4.42899C18.6483 4.42899 17.3536 4.90518 16.3834 5.85756C15.4131 6.80994 14.928 8.15518 14.928 9.89328V12.9468H11.3566V17.0897H14.928V27.7147H5.42801C4.01135 27.7147 2.80004 27.2117 1.79408 26.2058C0.788132 25.1998 0.285156 23.9885 0.285156 22.5718V5.42899C0.285156 4.01232 0.788132 2.80101 1.79408 1.79506C2.80004 0.789109 4.01135 0.286133 5.42801 0.286133H22.5709Z" fill="#232629"/>
</svg>
