<svg width="1380" height="560" viewBox="0 0 1380 560" fill="none" xmlns="http://www.w3.org/2000/svg">
<g opacity="0.24" filter="url(#filter0_f_551_1042)">
<path d="M53.0681 296.957C114.414 380.939 183.388 470.84 297.737 500.955C351.44 515.099 410.88 513.633 460.702 489.571C508.073 466.693 541.462 426.137 563.573 383.573C588.154 336.258 600.37 285.368 618.517 236.079C623.075 223.698 628 211.393 633.723 199.39C632.459 202.044 633.912 199.025 634.108 198.639C635.007 196.856 635.891 195.067 636.81 193.29C638.342 190.327 639.923 187.383 641.557 184.463C644.501 179.203 647.612 174.015 650.96 168.947C654.085 164.216 657.405 159.587 660.911 155.072C662.673 152.804 664.48 150.561 666.336 148.351C667.079 147.466 667.828 146.585 668.587 145.71C665.625 149.125 669.774 144.457 670.379 143.807C678.452 135.112 687.293 126.961 696.903 119.578C699.225 117.795 701.606 116.078 703.998 114.367C703.365 114.819 700.595 116.594 703.915 114.427C705.144 113.625 706.37 112.824 707.615 112.042C712.804 108.779 718.177 105.744 723.731 102.987C726.354 101.685 729.016 100.443 731.716 99.2713C733.007 98.7105 741.181 95.577 736.292 97.3174C741.828 95.3461 747.463 93.6173 753.228 92.2378C756.108 91.547 759.012 90.9417 761.937 90.4178C763.148 90.2005 772.367 89.0731 766.736 89.6028C773.156 88.9994 779.563 88.685 786.023 88.8558C789.274 88.9411 792.522 89.1314 795.758 89.4224C796.948 89.5291 801.235 90.1539 796.627 89.4787C797.893 89.6649 799.162 89.8336 800.426 90.0335C807.345 91.1298 814.172 92.6782 820.849 94.6127C823.894 95.4955 826.871 96.5179 829.881 97.4803C830.644 97.7248 833.801 98.8715 829.976 97.4609C831.462 98.01 832.926 98.5999 834.39 99.1917C840.593 101.702 846.641 104.498 852.553 107.506C864.068 113.363 874.955 120.071 885.575 127.107C890.886 130.624 882.303 124.77 887.505 128.43C888.558 129.171 889.618 129.906 890.669 130.65C893.301 132.51 895.913 134.394 898.507 136.296C904.215 140.479 909.836 144.751 915.412 149.071C925.521 156.902 935.415 164.948 945.538 172.767C989.405 206.658 1040.99 239.612 1101.35 242.325C1132.88 243.743 1162.12 234.381 1189.91 222.153C1203.18 216.313 1216.15 209.916 1229.65 204.481C1230.94 203.961 1232.24 203.447 1233.55 202.952C1229.54 204.472 1236.08 202.099 1236.24 202.04C1239.27 201.018 1242.32 200.065 1245.4 199.19C1252.53 197.166 1259.85 195.517 1267.27 194.578C1263.18 195.096 1267.74 194.603 1268.77 194.532C1270.51 194.409 1272.25 194.318 1274 194.279C1277.47 194.202 1280.9 194.359 1284.37 194.566C1285.31 194.623 1288.43 195.341 1284.66 194.588C1286.68 194.989 1288.71 195.28 1290.71 195.744C1292.04 196.053 1293.37 196.398 1294.68 196.774C1295.01 196.868 1301.23 199.13 1297.21 197.535C1307.68 201.691 1321.35 200.506 1327.3 190.573C1332.37 182.094 1330.6 168.475 1319.41 164.026C1288.72 151.834 1255.51 154.15 1224.55 164.62C1209.97 169.552 1196.08 175.742 1182.23 182.079C1176.12 184.877 1170.01 187.68 1163.82 190.339C1160.9 191.592 1157.96 192.816 1155 193.99C1154.85 194.05 1148.32 196.445 1152.33 195.028C1150.33 195.734 1148.33 196.425 1146.31 197.077C1139.58 199.244 1132.7 201.051 1125.67 202.293C1124.29 202.535 1122.91 202.739 1121.53 202.958C1115.19 203.961 1124.14 202.939 1120.31 203.094C1116.64 203.241 1112.99 203.616 1109.3 203.657C1105.99 203.695 1102.67 203.608 1099.37 203.412C1097.73 203.315 1096.08 203.106 1094.44 203.032C1090.63 202.861 1099.61 203.857 1093.42 202.925C1086.87 201.941 1080.42 200.678 1074.05 198.996C1070.85 198.148 1067.67 197.211 1064.53 196.198C1062.95 195.69 1061.4 195.094 1059.81 194.607C1056.16 193.49 1064.4 196.479 1058.5 194.141C1051.92 191.534 1045.48 188.707 1039.18 185.598C1026.63 179.399 1014.68 172.28 1003.19 164.659C1002.06 163.91 1000.93 163.157 999.816 162.396C1002.7 164.36 999.108 161.886 998.419 161.403C995.935 159.665 993.468 157.903 991.019 156.124C985.091 151.814 979.265 147.394 973.516 142.9C963.474 135.052 953.585 127.056 943.469 119.281C922.443 103.121 900.541 87.3598 876.446 74.8683C851.278 61.8179 823.929 52.9664 794.793 50.5274C767.635 48.2554 740.819 53.4825 716.044 63.0888C668.248 81.6224 630.291 119.316 606.588 159.641C578.454 207.502 565.313 260.305 547.424 311.465C543.357 323.097 539.035 334.661 534.107 346.033C532.971 348.658 531.803 351.273 530.603 353.875C530.189 354.772 528.538 358.268 530.249 354.702C529.752 355.74 529.244 356.776 528.734 357.81C525.926 363.499 522.954 369.126 519.799 374.669C514.091 384.693 507.785 394.462 500.741 403.803C498.995 406.118 497.205 408.407 495.37 410.668C494.637 411.568 493.897 412.466 493.149 413.357C492.777 413.799 488.921 418.145 492.023 414.705C488.141 419.011 484.117 423.21 479.865 427.24C475.643 431.24 471.22 435.076 466.596 438.714C464.288 440.53 461.898 442.255 459.53 444.007C458.866 444.498 456.219 446.213 459.598 443.998C458.107 444.976 456.621 445.955 455.106 446.902C450.034 450.075 444.77 453.01 439.331 455.669C436.567 457.019 433.764 458.303 430.917 459.512C429.749 460.007 428.569 460.475 427.397 460.96C425.062 461.862 425.035 461.883 427.317 461.026C426.425 461.35 425.53 461.662 424.631 461.967C418.967 463.903 413.185 465.552 407.314 466.924C404.238 467.644 401.136 468.282 398.021 468.845C396.774 469.07 395.525 469.283 394.274 469.483C393.327 469.635 385.251 470.68 390.688 470.071C377.996 471.493 365.138 471.705 352.384 470.886C349.165 470.679 345.959 470.372 342.751 470.071C341.837 469.986 338.471 469.464 342.822 470.091C341.221 469.86 339.616 469.66 338.016 469.423C331.268 468.424 324.569 467.157 317.946 465.636C311.599 464.179 305.317 462.498 299.117 460.607C296.318 459.753 293.537 458.855 290.773 457.915C289.237 457.393 287.709 456.854 286.178 456.313C280.132 454.176 290.088 457.911 284.149 455.544C272.138 450.756 260.481 445.389 249.318 439.197C243.791 436.132 238.391 432.89 233.127 429.48C232.006 428.755 230.898 428.014 229.781 427.282C224.3 423.687 232.954 429.595 227.644 425.817C224.678 423.706 221.719 421.591 218.814 419.416C197.424 403.393 178.245 385.19 160.645 365.938C158.46 363.548 156.301 361.14 154.157 358.72C154.731 359.366 156.386 361.301 153.761 358.268C152.704 357.046 151.648 355.821 150.6 354.593C146.185 349.426 141.858 344.201 137.603 338.929C129.482 328.871 121.619 318.652 113.891 308.356C106.181 298.083 98.6062 287.729 91.0407 277.372C84.8164 268.85 71.2398 264.562 60.959 270.412C51.3048 275.901 46.404 287.832 53.0681 296.957Z" fill="#C8F249"/>
</g>
<defs>
<filter id="filter0_f_551_1042" x="0" y="-0.000244141" width="1380" height="560" filterUnits="userSpaceOnUse" color-interpolation-filters="sRGB">
<feFlood flood-opacity="0" result="BackgroundImageFix"/>
<feBlend mode="normal" in="SourceGraphic" in2="BackgroundImageFix" result="shape"/>
<feGaussianBlur stdDeviation="25" result="effect1_foregroundBlur_551_1042"/>
</filter>
</defs>
</svg>
