<svg width="48" height="34" viewBox="0 0 48 34" fill="none" xmlns="http://www.w3.org/2000/svg">
<path fill-rule="evenodd" clip-rule="evenodd" d="M2.91677 0.793065C1.82786 0.974003 0.784984 1.78325 0.295516 2.82725L0.0461406 3.35928V16.9999V30.6405L0.295516 31.1726C0.802609 32.2542 1.81961 33.0208 3.00245 33.2127C3.84677 33.3496 44.1518 33.3496 44.9961 33.2127C46.188 33.0193 47.2229 32.2342 47.6853 31.1726C47.8127 30.88 47.9566 30.5673 48.005 30.4778C48.1294 30.2476 48.1238 3.37607 47.9993 3.45303C47.9477 3.48491 47.9055 3.45191 47.9055 3.37982C47.9055 3.30763 47.7778 2.9931 47.6217 2.68072C47.1212 1.679 46.1389 0.972597 44.9863 0.785565C44.2334 0.663409 3.65392 0.670628 2.91677 0.793065ZM0.0449219 16.9999C0.0449219 24.4507 0.0559844 27.4988 0.0695781 23.7733C0.0831719 20.048 0.0831719 13.9519 0.0695781 10.2265C0.0559844 6.50113 0.0449219 9.54913 0.0449219 16.9999ZM30.7596 7.00578C30.2262 7.30138 30.1277 8.01341 30.5541 8.4906L30.8276 8.79678H36.88H42.9325L43.176 8.55332C43.3279 8.40135 43.439 8.16435 43.4714 7.92313C43.5183 7.57353 43.4915 7.50463 43.1925 7.20566L42.8618 6.87491L36.9227 6.87819C32.1731 6.88091 30.9387 6.90641 30.7596 7.00578ZM5.00739 10.706C4.51502 11.0095 4.48764 11.191 4.5182 13.9442L4.54614 16.4531L4.85233 16.7265L5.15852 16.9999H8.53661C12.1325 16.9999 12.3226 16.978 12.559 16.5363C12.6185 16.4251 12.6555 15.3654 12.6555 13.7732V11.1904L12.382 10.8842L12.1086 10.578L8.70236 10.5531C5.4963 10.5296 5.27917 10.5386 5.00739 10.706ZM4.85233 22.2422C4.59133 22.4754 4.54614 22.5789 4.54614 22.9432C4.54614 23.2854 4.59798 23.4225 4.80611 23.6306L5.06598 23.8905H7.88411H10.7021L10.9757 23.5843C11.2724 23.2523 11.3249 22.8936 11.1372 22.4817C10.9162 21.9965 10.737 21.9687 7.83348 21.9687H5.15852L4.85233 22.2422ZM14.2596 22.0995C13.9669 22.2617 13.788 22.5951 13.7838 22.9858C13.7814 23.2206 13.861 23.3803 14.0993 23.6187L14.418 23.9374H17.0463C18.5268 23.9374 19.7796 23.8975 19.915 23.846C20.5524 23.6037 20.687 22.7039 20.1573 22.2265L19.8713 21.9687L17.1775 21.9719C15.1218 21.9745 14.4306 22.0048 14.2596 22.0995ZM23.3358 22.2427C22.8898 22.6887 22.9871 23.4609 23.5296 23.7813C23.759 23.9168 24.1358 23.9374 26.3856 23.9374C29.2914 23.9374 29.4339 23.9105 29.6831 23.3138C29.8543 22.904 29.7287 22.4394 29.3705 22.1577C29.1419 21.9778 28.9954 21.9687 26.37 21.9687H23.6098L23.3358 22.2427ZM32.6747 22.1796C32.1736 22.6177 32.2098 23.4268 32.745 23.7531C33.0249 23.9237 33.2301 23.9368 35.6539 23.937C37.3904 23.9373 38.33 23.9024 38.4664 23.8327C38.8197 23.6519 38.995 23.3515 38.9972 22.9224C38.9989 22.5974 38.9447 22.4623 38.7252 22.2427L38.4512 21.9687H35.6836C32.9474 21.9687 32.9132 21.9711 32.6747 22.1796ZM4.85233 26.836C4.59133 27.0691 4.54614 27.1726 4.54614 27.5369C4.54614 27.8791 4.59798 28.0163 4.80611 28.2243L5.06598 28.4843L13.853 28.5092C20.3305 28.5277 22.7086 28.5058 22.9015 28.4261C23.2705 28.2733 23.4368 27.9916 23.4368 27.5188C23.4368 27.1925 23.3817 27.0554 23.1627 26.8364L22.8887 26.5624H14.0236H5.15852L4.85233 26.836Z" fill="#232629"/>
</svg>
