<svg width="36" height="48" viewBox="0 0 36 48" fill="none" xmlns="http://www.w3.org/2000/svg">
<path fill-rule="evenodd" clip-rule="evenodd" d="M19.6257 1.11861C17.6423 1.65402 15.9822 3.01133 15.0885 4.82821C14.5589 5.90502 14.4012 6.60065 14.3977 7.87508C14.3942 9.18055 14.5466 9.82087 15.1561 11.0626C15.5259 11.8159 15.7247 12.0839 16.4451 12.8007C17.089 13.4415 17.4811 13.7434 18.0522 14.0382C20.383 15.2417 22.9779 15.1292 25.1412 13.7306C27.2533 12.3653 28.3966 10.1177 28.2866 7.54696C28.2084 5.71996 27.5626 4.29065 26.2111 2.95293C25.3414 2.09211 24.5539 1.60011 23.4843 1.2493C22.4501 0.910021 20.627 0.848333 19.6257 1.11861ZM24.2812 4.85418C24.1227 4.87677 23.4643 5.48474 22.2466 6.73293L20.4464 8.57821L19.5747 7.7158C19.0953 7.24152 18.581 6.80783 18.4317 6.75205C18.0453 6.60768 17.5634 6.78646 17.3367 7.15818C17.1225 7.50946 17.1087 7.79399 17.2891 8.13758C17.5062 8.55093 19.8934 10.8526 20.1796 10.9245C20.7912 11.078 20.8989 10.9913 23.638 8.13993C25.4278 6.27683 25.4999 6.18712 25.4999 5.82487C25.4999 5.19927 24.9474 4.75911 24.2812 4.85418ZM2.084 11.5421C1.59022 11.7865 1.097 12.3482 0.952528 12.8305C0.877153 13.0819 0.84434 14.4172 0.845746 17.1672C0.847715 20.964 0.85634 21.1595 1.03906 21.5626C1.29612 22.1296 1.55075 22.3888 2.10931 22.6522L2.57806 22.8732L13.664 22.8741L24.7499 22.8751L24.7518 21.6329C24.7528 20.9497 24.7957 20.1001 24.847 19.7449C25.0233 18.5252 25.8476 17.4225 26.9795 16.892C27.4489 16.6719 27.6321 16.6407 28.4531 16.6407C29.2753 16.6407 29.4568 16.6717 29.9299 16.8935C30.6255 17.2194 31.4034 17.9586 31.7096 18.5845C32.0489 19.2786 32.1562 19.9864 32.1562 21.533C32.1562 22.749 32.1716 22.875 32.3202 22.8741C32.6434 22.8724 33.4482 22.4206 33.6877 22.1067C34.2222 21.4059 34.2188 21.4384 34.2177 17.089L34.2168 13.0782L33.9955 12.6028C33.745 12.0649 33.2051 11.5716 32.7187 11.4362C32.5382 11.3859 31.6312 11.3459 30.7031 11.3471L29.0156 11.3494L28.6042 12.0949C27.5524 14.0012 25.5296 15.5092 23.2499 16.0866C22.2412 16.3421 20.2997 16.3223 19.2656 16.0461C16.9328 15.4228 14.6494 13.5651 13.8027 11.6016L13.6915 11.3438L8.08784 11.3439C2.57271 11.344 2.47803 11.3471 2.084 11.5421ZM4.12653 14.7456C3.61053 15.0067 3.63837 15.7676 4.17209 15.9906C4.64768 16.1893 13.0709 16.1893 13.5465 15.9906C13.9094 15.839 14.0488 15.5001 13.9103 15.1061C13.7439 14.6328 13.6915 14.6278 8.85931 14.6278C5.43293 14.6278 4.30381 14.6559 4.12653 14.7456ZM27.7263 18.1281C27.1692 18.336 26.7577 18.7056 26.494 19.2346L26.2499 19.7244L26.2458 24.1356L26.2417 28.547L26.0605 28.204C25.5167 27.1746 24.1227 26.7405 23.076 27.2744C22.4255 27.6063 21.8512 28.3865 21.8457 28.9457C21.8439 29.1362 21.8112 29.121 21.5134 28.7913C21.0771 28.3084 20.6389 28.1117 19.9992 28.1117C18.9853 28.1117 18.1081 28.8579 17.9599 29.8464L17.8965 30.2691L17.5603 30.0411C17.1114 29.7364 16.5524 29.5959 16.0742 29.6676C15.2656 29.7889 14.5062 30.5464 14.3885 31.3489C14.3575 31.5609 14.3462 34.0337 14.3636 36.8438C14.3939 41.7789 14.4018 41.9711 14.5934 42.477C14.7026 42.7651 14.8608 43.1343 14.9452 43.2973L15.0985 43.5938H22.2763H29.4541L29.8491 43.1954C30.0701 42.9725 30.8586 42.446 31.6391 42.0001C33.5562 40.905 34.1951 40.2629 34.6497 38.974C34.8264 38.4735 35.1864 34.5002 35.1177 33.8093C34.9319 31.9406 33.3204 30.6563 31.1612 30.6563H30.6605L30.6349 25.0942L30.6093 19.5321L30.3256 19.0732C29.7915 18.2095 28.6351 17.7891 27.7263 18.1281ZM4.12653 18.2144C3.84603 18.3563 3.69978 18.7251 3.78668 19.0712C3.92056 19.6044 3.74318 19.5939 12.5829 19.5924C21.2562 19.5909 20.9953 19.6054 21.2716 19.1132C21.4463 18.802 21.2855 18.3561 20.9423 18.1998C20.5893 18.0389 4.44556 18.053 4.12653 18.2144ZM15.2812 46.0782V47.0626H22.3124H29.3437V46.0782V45.0938H22.3124H15.2812V46.0782Z" fill="#232629"/>
</svg>
