<svg width="38" height="42" viewBox="0 0 38 42" fill="none" xmlns="http://www.w3.org/2000/svg">
<path fill-rule="evenodd" clip-rule="evenodd" d="M9.08294 0.155906C8.91372 0.239344 8.68169 0.43875 8.56731 0.599062C8.36884 0.877406 8.35938 0.977719 8.35938 2.8125C8.35938 4.68712 8.36481 4.74159 8.581 5.02959C9.04272 5.64488 8.92431 5.63372 14.6875 5.60447L19.8906 5.57812L20.1967 5.35978C20.7781 4.94513 20.8281 4.74319 20.8281 2.8125C20.8281 0.870281 20.7664 0.6405 20.1295 0.211219L19.816 0L14.6033 0.00215614C9.99363 0.00403114 9.355 0.0218436 9.08294 0.155906ZM1.09366 2.36719C0.70225 2.60222 0.526375 2.78681 0.324344 3.17475L0.0625 3.67762V22.0312V40.3849L0.324437 40.8862C0.515219 41.2514 0.710782 41.4646 1.04369 41.6705L1.50091 41.9531H14.5933H27.6856L28.0763 41.6945C28.2913 41.5523 28.5835 41.26 28.7257 41.0451L28.9844 40.6543V22.0312V3.40819L28.7257 3.01744C28.5835 2.80247 28.2914 2.51025 28.0766 2.36803L27.686 2.10938L24.9939 2.08191L22.3019 2.05444L22.2677 3.44128C22.2358 4.73344 22.2155 4.86459 21.9714 5.36278C21.6425 6.03356 20.9366 6.68063 20.2863 6.9075C19.8353 7.06472 19.3811 7.07812 14.5 7.07812H9.20313L8.67625 6.83109C7.92813 6.48028 7.44653 6.00806 7.13669 5.32144C6.89537 4.78688 6.868 4.61494 6.83031 3.39844L6.78888 2.0625H4.195H1.60113L1.09366 2.36719ZM33.8916 5.37506C32.9511 5.72644 32.4054 6.20541 31.9625 7.06809C31.7493 7.48359 31.7112 7.69256 31.6749 8.64844L31.6331 9.75H34.7952H37.9573L37.9239 8.64844C37.8945 7.67287 37.8609 7.48631 37.6309 7.01794C37.3253 6.39572 36.6933 5.78034 36.079 5.50697C35.5278 5.26172 34.3802 5.19253 33.8916 5.37506ZM31.6563 20.25V29.25H34.7969H37.9375V20.25V11.25H34.7969H31.6563V20.25ZM9.11247 14.1558L7.41644 15.8427L6.67778 15.0997C6.27147 14.691 5.83938 14.3317 5.71759 14.301C5.30069 14.1964 4.85191 14.5724 4.84675 15.0307C4.84431 15.2436 5.04878 15.5056 5.88438 16.3608C7.01013 17.5128 7.27263 17.6743 7.70969 17.4838C7.86081 17.4179 8.85981 16.4818 9.92969 15.4035C11.595 13.7251 11.875 13.4023 11.875 13.161C11.875 12.7594 11.5709 12.4688 11.1505 12.4688C10.8323 12.4688 10.6896 12.5869 9.11247 14.1558ZM14.321 14.3522C13.673 14.6113 13.6905 15.4019 14.3497 15.6526C14.514 15.715 16.204 15.75 19.056 15.75C23.9123 15.75 24.0864 15.7327 24.21 15.2406C24.3127 14.8312 24.1788 14.5311 23.8278 14.3844C23.5629 14.2737 22.7148 14.251 19.0264 14.2559C16.3878 14.2595 14.4541 14.299 14.321 14.3522ZM9.11247 23.1558L7.41644 24.8427L6.67778 24.0997C6.27147 23.691 5.83938 23.3317 5.71759 23.301C5.30069 23.1964 4.85191 23.5724 4.84675 24.0307C4.84431 24.2436 5.04878 24.5056 5.88438 25.3608C7.01013 26.5128 7.27263 26.6743 7.70969 26.4838C7.86081 26.4179 8.85981 25.4818 9.92969 24.4035C11.595 22.7251 11.875 22.4023 11.875 22.161C11.875 21.7594 11.5709 21.4688 11.1505 21.4688C10.8323 21.4688 10.6896 21.5869 9.11247 23.1558ZM14.321 23.3522C13.673 23.6113 13.6905 24.4019 14.3497 24.6526C14.514 24.715 16.204 24.75 19.056 24.75C23.9123 24.75 24.0864 24.7327 24.21 24.2406C24.3127 23.8312 24.1788 23.5311 23.8278 23.3844C23.5629 23.2737 22.7148 23.251 19.0264 23.2559C16.3878 23.2595 14.4541 23.299 14.321 23.3522ZM9.11247 32.1558L7.41644 33.8427L6.67778 33.0997C6.27147 32.691 5.83938 32.3317 5.71759 32.301C5.30069 32.1964 4.85191 32.5724 4.84675 33.0307C4.84431 33.2436 5.04878 33.5056 5.88438 34.3608C7.01013 35.5128 7.27263 35.6743 7.70969 35.4838C7.86081 35.4179 8.85981 34.4818 9.92969 33.4035C11.595 31.7251 11.875 31.4023 11.875 31.161C11.875 30.7594 11.5709 30.4688 11.1505 30.4688C10.8323 30.4688 10.6896 30.5869 9.11247 32.1558ZM31.9375 30.8138C31.9375 31.0192 34.1539 36.4352 34.2963 36.5775C34.5159 36.7972 35.0431 36.8016 35.2985 36.5859C35.4153 36.4874 35.939 35.2895 36.6103 33.5859L37.7277 30.75H34.8326C33.2403 30.75 31.9375 30.7787 31.9375 30.8138ZM14.321 32.3522C13.673 32.6113 13.6905 33.4019 14.3497 33.6526C14.514 33.715 16.204 33.75 19.056 33.75C23.9123 33.75 24.0864 33.7327 24.21 33.2406C24.3127 32.8312 24.1788 32.5311 23.8278 32.3844C23.5629 32.2737 22.7148 32.251 19.0264 32.2559C16.3878 32.2595 14.4541 32.299 14.321 32.3522Z" fill="#232629"/>
</svg>
