<svg width="42" height="42" viewBox="0 0 42 42" fill="none" xmlns="http://www.w3.org/2000/svg">
<path fill-rule="evenodd" clip-rule="evenodd" d="M2.88331 0.194683C1.99709 0.405901 1.08022 1.06675 0.577624 1.85659C-0.0185325 2.79334 -0.00625106 2.6004 0.0220614 10.6021L0.0477488 17.8594L0.266655 18.4018C0.568905 19.1507 1.35303 19.978 2.11672 20.3539C2.627 20.6052 2.85762 20.6573 3.6784 20.7072L4.6415 20.7657L4.68837 23.0828C4.72934 25.1059 4.75559 25.4204 4.89584 25.5604C5.02475 25.6892 5.09872 25.7005 5.27084 25.6178C5.38878 25.5611 6.83525 24.4369 8.48525 23.1196L11.4852 20.7242L18.6102 20.6981L25.7352 20.6719L26.3635 20.3744C27.1627 19.9957 27.7778 19.3806 28.1564 18.5814L28.454 17.9532V10.4043V2.8554L28.1476 2.23318C27.7596 1.44493 26.9432 0.666057 26.1838 0.359589L25.6415 0.140683L14.4384 0.125683C8.11353 0.117245 3.08197 0.147339 2.88331 0.194683ZM12.9535 5.43428C12.027 5.68543 11.3272 6.10037 10.5856 6.83809C9.00284 8.41234 8.64912 10.7328 9.67156 12.8336C10.441 14.4146 12.4525 15.653 14.2509 15.653C14.8612 15.653 15.8553 15.4229 16.5059 15.1308L17.0705 14.8775L17.3843 15.22C17.7753 15.6468 18.1711 15.6821 18.5312 15.322C18.8237 15.0295 18.7823 14.6253 18.4211 14.2483C18.2931 14.1147 18.1884 13.9809 18.1884 13.9509C18.1884 13.921 18.36 13.6395 18.5697 13.3253C20.0385 11.1258 19.6011 8.13025 17.5655 6.44809C16.3108 5.4114 14.5032 5.01399 12.9535 5.43428ZM13.3713 6.75456C12.3265 7.01706 11.2613 7.89962 10.799 8.88587C10.5742 9.36549 10.5477 9.53059 10.5477 10.4532C10.5477 11.3925 10.5711 11.5321 10.8098 12.0181C11.6893 13.8091 13.648 14.6421 15.493 14.0101C15.7378 13.9262 15.9602 13.8217 15.9873 13.778C16.0143 13.7343 15.6548 13.2671 15.1883 12.7397C14.7219 12.2124 14.3166 11.6866 14.2876 11.5712C14.178 11.1344 14.6917 10.6299 15.1332 10.7407C15.2847 10.7788 15.7092 11.1769 16.2393 11.7781C16.7125 12.3146 17.1442 12.7408 17.1987 12.725C17.2531 12.7094 17.4454 12.4037 17.6259 12.0458C17.939 11.4249 17.954 11.3499 17.954 10.4066C17.954 9.48128 17.9346 9.37853 17.6502 8.80075C17.0471 7.57571 15.8135 6.76206 14.4617 6.69775C14.0622 6.67871 13.5715 6.70431 13.3713 6.75456ZM29.9745 16.3701C29.9375 16.4072 29.9071 16.6959 29.9071 17.0117C29.9071 19.163 28.2569 21.2321 26.0967 21.7891C25.6002 21.917 24.6897 21.9376 19.5082 21.9376H13.4956L13.5217 28.0547L13.5477 34.1719L13.8041 34.7191C14.2957 35.7686 14.915 36.3466 15.9654 36.7363C16.5024 36.9355 16.5795 36.9376 23.4747 36.9376H30.4415L30.8071 37.2034C31.0082 37.3496 32.354 38.4123 33.7977 39.5649C35.2415 40.7176 36.5373 41.7264 36.6774 41.8067C36.9117 41.9413 36.9453 41.9396 37.0992 41.7858C37.2479 41.6372 37.2717 41.3622 37.3134 39.3016L37.3602 36.9844L38.3102 36.9324C39.1272 36.8877 39.3448 36.8386 39.8654 36.5823C40.6062 36.2176 41.3511 35.4586 41.7012 34.7113L41.954 34.1719L41.9802 26.8695C42.0091 18.8148 42.028 19.1097 41.4184 18.0982C41.0399 17.4704 40.323 16.8737 39.5956 16.581C39.0509 16.3618 39.0215 16.3604 34.5448 16.3317C32.0682 16.3157 30.0116 16.3331 29.9745 16.3701ZM27.3968 22.0005C27.331 22.027 27.1989 22.2029 27.1033 22.3915C26.9104 22.7722 23.5697 30.7031 23.3877 31.2125C23.1832 31.7846 23.4766 32.2501 24.0416 32.2501C24.4139 32.2501 24.5826 32.0068 25.1676 30.6257L25.7105 29.3438H27.7526H29.7946L30.3325 30.6329C30.6282 31.3419 30.9536 31.9958 31.0553 32.086C31.4652 32.4494 32.1613 32.1687 32.1765 31.6337C32.1836 31.3877 28.9559 23.4917 28.3999 22.3944C28.1844 21.9692 27.8254 21.8282 27.3968 22.0005ZM27.0732 26.0873C26.7262 26.9245 26.4158 27.6833 26.3834 27.7735C26.3291 27.9251 26.4326 27.9376 27.7509 27.9376C29.0692 27.9376 29.1727 27.9251 29.1183 27.7735C28.9138 27.2035 27.7893 24.5652 27.7509 24.5652C27.7251 24.5652 27.4201 25.2501 27.0732 26.0873Z" fill="#232629"/>
</svg>
