<svg width="28" height="28" viewBox="0 0 28 28" fill="none" xmlns="http://www.w3.org/2000/svg">
<path d="M14.0013 0.666992C17.624 0.666992 18.076 0.680325 19.4973 0.746992C20.9173 0.813659 21.884 1.03633 22.7346 1.36699C23.6146 1.70566 24.356 2.16433 25.0973 2.90433C25.7753 3.57085 26.2999 4.37711 26.6346 5.26699C26.964 6.11632 27.188 7.08432 27.2546 8.50432C27.3173 9.92566 27.3346 10.3777 27.3346 14.0003C27.3346 17.623 27.3213 18.075 27.2546 19.4963C27.188 20.9163 26.964 21.883 26.6346 22.7337C26.3009 23.624 25.7761 24.4305 25.0973 25.0963C24.4306 25.7741 23.6244 26.2987 22.7346 26.6337C21.8853 26.963 20.9173 27.187 19.4973 27.2537C18.076 27.3163 17.624 27.3337 14.0013 27.3337C10.3786 27.3337 9.92663 27.3203 8.5053 27.2537C7.0853 27.187 6.11863 26.963 5.26797 26.6337C4.37774 26.2996 3.57134 25.7749 2.9053 25.0963C2.22718 24.4299 1.70254 23.6236 1.36797 22.7337C1.0373 21.8843 0.814635 20.9163 0.747969 19.4963C0.685302 18.075 0.667969 17.623 0.667969 14.0003C0.667969 10.3777 0.681302 9.92566 0.747969 8.50432C0.814635 7.08299 1.0373 6.11766 1.36797 5.26699C1.70162 4.37656 2.22637 3.57009 2.9053 2.90433C3.57153 2.22597 4.37787 1.7013 5.26797 1.36699C6.11863 1.03633 7.08397 0.813659 8.5053 0.746992C9.92663 0.684325 10.3786 0.666992 14.0013 0.666992ZM14.0013 7.33366C12.2332 7.33366 10.5375 8.03604 9.28726 9.28628C8.03701 10.5365 7.33464 12.2322 7.33463 14.0003C7.33464 15.7684 8.03701 17.4641 9.28726 18.7144C10.5375 19.9646 12.2332 20.667 14.0013 20.667C15.7694 20.667 17.4651 19.9646 18.7153 18.7144C19.9656 17.4641 20.668 15.7684 20.668 14.0003C20.668 12.2322 19.9656 10.5365 18.7153 9.28628C17.4651 8.03604 15.7694 7.33366 14.0013 7.33366ZM22.668 7.00033C22.668 6.5583 22.4924 6.13437 22.1798 5.82181C21.8673 5.50925 21.4433 5.33366 21.0013 5.33366C20.5593 5.33366 20.1353 5.50925 19.8228 5.82181C19.5102 6.13437 19.3346 6.5583 19.3346 7.00033C19.3346 7.44235 19.5102 7.86628 19.8228 8.17884C20.1353 8.4914 20.5593 8.66699 21.0013 8.66699C21.4433 8.66699 21.8673 8.4914 22.1798 8.17884C22.4924 7.86628 22.668 7.44235 22.668 7.00033ZM14.0013 10.0003C15.0622 10.0003 16.0796 10.4218 16.8297 11.1719C17.5799 11.922 18.0013 12.9395 18.0013 14.0003C18.0013 15.0612 17.5799 16.0786 16.8297 16.8288C16.0796 17.5789 15.0622 18.0003 14.0013 18.0003C12.9404 18.0003 11.923 17.5789 11.1729 16.8288C10.4227 16.0786 10.0013 15.0612 10.0013 14.0003C10.0013 12.9395 10.4227 11.922 11.1729 11.1719C11.923 10.4218 12.9404 10.0003 14.0013 10.0003Z" fill="#232629"/>
</svg>
