<svg width="28" height="28" viewBox="0 0 28 28" fill="none" xmlns="http://www.w3.org/2000/svg">
<path d="M23.0389 27.3337H4.96468C2.57819 27.3337 0.636719 25.3963 0.636719 23.0147V4.98598C0.636719 2.60433 2.57819 0.666992 4.96468 0.666992H23.0389C25.4247 0.666992 27.3662 2.60433 27.3662 4.98598V23.0154C27.3662 25.397 25.4247 27.3337 23.0389 27.3337ZM9.66865 22.7125H9.67417V11.2099H6.09548V22.7125H9.66796H9.66865ZM7.88241 9.6389C8.15451 9.63927 8.424 9.58594 8.67545 9.48198C8.9269 9.37803 9.15537 9.22548 9.34777 9.03308C9.54017 8.84068 9.69272 8.61221 9.79668 8.36076C9.90063 8.1093 9.95396 7.83981 9.9536 7.56772C9.9525 7.01874 9.73394 6.49256 9.34575 6.10438C8.95757 5.71619 8.43139 5.49763 7.88241 5.49653C7.33316 5.49672 6.80645 5.71499 6.41807 6.10337C6.02968 6.49176 5.81141 7.01846 5.81123 7.56772C5.81141 8.11697 6.02968 8.64368 6.41807 9.03207C6.80645 9.42045 7.33316 9.63872 7.88241 9.6389ZM23.0596 22.7132V16.4072C23.0596 13.3087 22.3869 10.9249 18.7717 10.9249C17.0337 10.9249 15.867 11.8771 15.3875 12.7809H15.3392V11.2099H11.9123V22.7125H15.4848V17.0205C15.4848 15.5192 15.7697 14.0669 17.6305 14.0669C19.4602 14.0669 19.4871 15.7835 19.4871 17.1171V22.7125H23.0596V22.7132Z" fill="#232629"/>
</svg>
