<svg width="28" height="28" viewBox="0 0 28 28" fill="none" xmlns="http://www.w3.org/2000/svg">
<path fill-rule="evenodd" clip-rule="evenodd" d="M27.3346 4.47652C27.3346 2.37175 25.6299 0.666992 23.5251 0.666992H4.47749C2.37273 0.666992 0.667969 2.37175 0.667969 4.47652V23.5241C0.667969 25.6289 2.37273 27.3337 4.47749 27.3337H23.5251C25.6299 27.3337 27.3346 25.6289 27.3346 23.5241V4.47652Z" fill="#232629"/>
<path d="M5.53687 22.1399H7.53688L12.8769 16.0699L17.5219 22.1299H22.9519L15.8269 12.7099L21.8569 5.85986H19.8569L14.9019 11.4899L10.6519 5.86486H5.04688L11.9419 14.8599L5.53188 22.1449L5.53687 22.1399ZM8.09188 7.35986H9.91188L19.9419 20.6299H18.2669L8.09688 7.35986H8.09188Z" fill="white"/>
</svg>
